<svg width="183" height="225" viewBox="0 0 183 225" fill="none" xmlns="http://www.w3.org/2000/svg">
<path fill-rule="evenodd" clip-rule="evenodd" d="M0.133282 148.644C1.12696 114.599 0.133282 59.894 0.133282 59.894C0.133282 59.894 -3.7752 27.173 30.7386 27.2332H62.2992C43.5765 27.2332 43.2878 37.1584 43.1331 42.4771C43.1293 42.6074 43.1256 42.7349 43.1217 42.8595C43.1217 52.3802 48.766 57.3564 54.926 59.894H30.7386V148.644H104.436V145.294C116.419 144.409 133.799 129.597 139.646 120.239C139.572 135.249 139.646 148.644 139.646 148.644C139.646 148.644 142.329 178.675 104.436 178.314C71.3736 177.999 41.2671 178.234 32.9366 178.299C31.7198 178.308 30.9675 178.314 30.7386 178.314C30.6317 178.314 30.4259 178.33 30.1335 178.352C25.5095 178.702 -0.77014 180.691 0.133282 148.644Z" fill="#6D5B97"/>
<path d="M104.436 27.2332H62.2992C43.5765 27.2332 43.2878 37.1584 43.1331 42.4771C43.1293 42.6074 43.1256 42.7349 43.1217 42.8595C43.1217 52.3802 48.766 57.3564 54.926 59.894C59.7874 61.8967 64.97 62.3804 67.9527 62.3804C72.533 62.3804 78.6844 61.8091 83.8597 59.894C89.4561 57.8232 93.9109 54.1811 94.0031 47.9913C94.2248 33.099 74.4604 35.8158 71.1674 45.4757C77.9294 42.8595 90.4558 42.2557 83.5829 49.2994C76.71 56.343 65.7356 51.9156 63.5186 47.9913C61.3015 44.067 61.4389 27.2332 104.436 27.2332Z" fill="#F37A29"/>
<path d="M104.436 145.294C116.419 144.409 133.799 129.597 139.646 120.239C139.646 120.239 143.017 106.697 143 94.7812C142.983 83.0335 139.646 59.894 139.646 59.894C139.646 70.4303 123.046 87.9388 104.436 97.4981C104.436 97.4981 99.7674 98.8062 99.7674 120.239C99.7674 141.672 104.436 145.294 104.436 145.294Z" fill="#F37A29"/>
<path d="M71.1674 45.4757C74.4604 35.8158 94.2248 33.099 94.0031 47.9913C93.9109 54.1811 89.4561 57.8232 83.8597 59.894H104.436V97.4981C123.046 87.9388 139.646 70.4303 139.646 59.894V0.5L104.436 27.2332C61.4389 27.2332 61.3015 44.067 63.5186 47.9913C65.7356 51.9156 76.71 56.343 83.5829 49.2994C90.4558 42.2557 77.9294 42.8595 71.1674 45.4757Z" fill="#6D5B97"/>
<path fill-rule="evenodd" clip-rule="evenodd" d="M87.0208 170.39C86.9513 204.723 87.0581 225.088 87.3071 225C87.5254 224.922 93.0723 220.485 99.6334 215.139L111.563 205.421H160.266C172.591 205.421 183 201.16 183 186.569V123.799C183 107.765 167.844 104.61 160.266 105.036H109.203C91.5314 105.175 87.3071 113.724 87.3071 123.799L87.0208 170.39ZM110.811 155.184V186.569H160.266V123.799H110.811V155.184Z" fill="#FCB239"/>
</svg>
